<?xml version='1.0' encoding='iso-8859-1'?>
<svg version="1.1" xmlns="http://www.w3.org/2000/svg" viewBox="0 0 470 470" xmlns:xlink="http://www.w3.org/1999/xlink" enable-background="new 0 0 470 470">
  <g>
    <path d="m326.735,113.647c0-4.143-3.357-7.5-7.5-7.5h-168.47c-4.142,0-7.5,3.357-7.5,7.5s3.358,7.5 7.5,7.5h168.471c4.142,0 7.499-3.357 7.499-7.5z"/>
    <path d="m71.548,372.984c0.532,3.743 3.742,6.445 7.416,6.445 0.351,0 0.708-0.024 1.065-0.075 4.101-0.584 6.953-4.381 6.369-8.481l-19.502-137.124 160.604-70.225v208.976c0,4.143 3.358,7.5 7.5,7.5 4.143,0 7.5-3.357 7.5-7.5v-208.976l109.484,47.873c0.043,0.02 0.087,0.038 0.13,0.057l50.99,22.296-19.501,137.11c-0.584,4.101 2.268,7.897 6.369,8.48 4.09,0.596 7.897-2.268 8.48-6.369l20.304-142.754c0.475-3.335-1.333-6.578-4.42-7.928l-51.993-22.734-6.322-98.186c-0.896-13.907-12.961-25.222-26.897-25.222h-47.101v-60.647c0-2.832-1.595-5.422-4.123-6.697-0.712-0.36-17.749-8.803-42.9-8.803-25.152,0-42.188,8.443-42.901,8.803-2.528,1.275-4.124,3.865-4.124,6.697v60.647h-47.101c-13.936,0-26.002,11.314-26.897,25.221l-6.322,98.187-51.992,22.734c-3.087,1.35-4.895,4.593-4.42,7.928l20.305,142.767zm131.427-352.5c5.757-2.129 17.187-5.484 32.025-5.484 14.711,0 26.228,3.375 32.024,5.503v55.645h-64.049v-55.664zm-74.029,81.848c0.391-6.063 5.853-11.185 11.928-11.185h188.25c6.075,0 11.538,5.122 11.929,11.185l5.824,90.46-108.873-47.605c-0.237-0.101-0.456-0.183-0.678-0.256-0.019-0.006-0.038-0.015-0.057-0.021-0.515-0.163-1.054-0.27-1.611-0.318-0.44-0.039-0.882-0.039-1.322,0-0.555,0.049-1.093,0.155-1.606,0.318-0.022,0.007-0.042,0.016-0.064,0.023-0.22,0.072-0.437,0.152-0.647,0.244-0.025,0.009-108.898,47.615-108.898,47.615l5.825-90.46z"/>
    <path d="m7.5,410c14.17,0 27.804-5.631 37.928-15.386 10.123,9.756 23.744,15.386 37.894,15.386 14.186,0 27.828-5.627 37.955-15.379 10.102,9.751 23.725,15.379 37.903,15.379 14.375,0 27.787-5.511 37.932-15.366 10.1,9.743 23.719,15.366 37.89,15.366 14.16,0 27.784-5.623 37.907-15.366 10.122,9.855 23.528,15.366 37.915,15.366 14.17,0 27.803-5.63 37.927-15.386 10.124,9.756 23.758,15.386 37.928,15.386 14.178,0 27.801-5.627 37.902-15.378 10.124,9.751 23.753,15.378 37.919,15.378 4.143,0 7.5-3.357 7.5-7.5s-3.357-7.5-7.5-7.5c-12.674,0-24.3-5.896-31.896-16.174-1.414-1.914-3.651-3.043-6.031-3.043-2.389,0.002-4.628,1.136-6.04,3.054-7.45,10.121-19.358,16.163-31.854,16.163-12.488,0-24.412-6.046-31.896-16.174-1.414-1.914-3.652-3.043-6.032-3.043s-4.618,1.129-6.032,3.043c-7.484,10.128-19.406,16.174-31.895,16.174-12.651,0-24.265-5.896-31.863-16.175-1.414-1.913-3.652-3.042-6.031-3.042-2.38,0-4.617,1.129-6.031,3.043-7.486,10.127-19.409,16.174-31.897,16.174-12.497,0-24.405-6.042-31.855-16.163-1.411-1.916-3.646-3.049-6.025-3.054-2.389,0-4.623,1.124-6.038,3.03-7.633,10.288-19.262,16.187-31.904,16.187-12.496,0-24.405-6.042-31.854-16.163-1.412-1.918-3.651-3.052-6.033-3.054-2.386,0-4.625,1.129-6.039,3.043-7.483,10.128-19.421,16.174-31.932,16.174-12.464,0-24.375-6.047-31.864-16.176-1.415-1.913-3.652-3.041-6.032-3.041s-4.617,1.13-6.031,3.043c-7.595,10.278-19.22,16.174-31.895,16.174-4.142,0-7.5,3.357-7.5,7.5s3.358,7.5 7.5,7.5z"/>
    <path d="m462.5,455c-12.674,0-24.3-5.896-31.896-16.174-1.414-1.914-3.651-3.043-6.031-3.043-2.389,0.002-4.628,1.136-6.04,3.054-7.45,10.121-19.358,16.163-31.854,16.163-12.488,0-24.412-6.046-31.896-16.174-1.414-1.914-3.652-3.043-6.032-3.043s-4.618,1.129-6.032,3.043c-7.484,10.128-19.406,16.174-31.895,16.174-12.651,0-24.265-5.896-31.863-16.175-1.414-1.913-3.652-3.042-6.031-3.042-2.38,0-4.617,1.129-6.031,3.043-7.486,10.127-19.409,16.174-31.897,16.174-12.497,0-24.405-6.042-31.855-16.163-1.411-1.916-3.646-3.049-6.025-3.054-2.389,0-4.623,1.124-6.038,3.03-7.633,10.288-19.262,16.187-31.904,16.187-12.496,0-24.405-6.042-31.854-16.163-1.412-1.918-3.651-3.052-6.033-3.054-2.386,0-4.625,1.129-6.039,3.043-7.483,10.128-19.421,16.174-31.932,16.174-12.464,0-24.375-6.047-31.864-16.176-1.415-1.913-3.652-3.041-6.032-3.041s-4.617,1.13-6.031,3.043c-7.595,10.278-19.22,16.174-31.895,16.174-4.142,0-7.5,3.357-7.5,7.5s3.358,7.5 7.5,7.5c14.17,0 27.804-5.631 37.928-15.386 10.123,9.756 23.744,15.386 37.894,15.386 14.186,0 27.828-5.627 37.955-15.379 10.102,9.751 23.725,15.379 37.903,15.379 14.375,0 27.787-5.511 37.932-15.366 10.1,9.743 23.719,15.366 37.89,15.366 14.16,0 27.784-5.623 37.907-15.366 10.122,9.855 23.528,15.366 37.915,15.366 14.17,0 27.803-5.63 37.927-15.386 10.124,9.756 23.758,15.386 37.928,15.386 14.178,0 27.801-5.627 37.902-15.378 10.124,9.751 23.753,15.378 37.919,15.378 4.143,0 7.5-3.357 7.5-7.5s-3.357-7.5-7.5-7.5z"/>
  </g>
</svg>
